<?xml version="1.0" encoding="iso-8859-1"?>
<!-- Generator: Adobe Illustrator 19.0.0, SVG Export Plug-In . SVG Version: 6.00 Build 0)  -->
<svg version="1.1" id="Layer_1" xmlns="http://www.w3.org/2000/svg" xmlns:xlink="http://www.w3.org/1999/xlink" x="0px" y="0px"
	 viewBox="0 0 512 512" style="enable-background:new 0 0 512 512;" xml:space="preserve">
<g>
	<path style="fill:#364C5C;" d="M375.284,169.431c-9.425,0-17.067-7.641-17.067-17.067V96.43c0-9.425,7.641-17.067,17.067-17.067
		c9.425,0,17.067,7.641,17.067,17.067v55.934C392.351,161.789,384.71,169.431,375.284,169.431z"/>
	<path style="fill:#364C5C;" d="M319.718,311.183l-29.88-45.94c-3.68-5.658-3.68-12.954,0-18.611l29.88-45.941
		c12.292-18.901,40.925-0.32,28.613,18.611l-23.827,36.635l23.827,36.634c5.139,7.902,2.9,18.473-5.002,23.613
		C335.43,321.323,324.857,319.085,319.718,311.183z"/>
	<path style="fill:#364C5C;" d="M407.237,316.184c-7.901-5.139-10.14-15.711-5.002-23.613l23.827-36.634l-23.827-36.635
		c-12.294-18.903,16.301-37.543,28.613-18.611l29.88,45.941c3.68,5.658,3.68,12.954,0,18.611l-29.88,45.94
		C425.711,319.082,415.14,321.325,407.237,316.184z"/>
</g>
<g>
	<path style="fill:#F8B64C;" d="M416.543,227.063h-82.517c-9.425,0-17.067-7.641-17.067-17.067v-57.633
		c0-9.425,7.641-17.067,17.067-17.067h82.517c9.425,0,17.067,7.641,17.067,17.067v57.633
		C433.61,219.423,425.968,227.063,416.543,227.063z"/>
	<path style="fill:#F8B64C;" d="M375.284,17.089H150.628c-14.508,0-22.392,17.026-13.029,28.09
		c24.69,29.183-14.803,68.58-43.905,43.912c-11.071-9.38-28.101-1.487-28.101,13.02V370.38c0,9.425,7.641,17.067,17.067,17.067
		h62.291c9.425,0,17.067-7.641,17.067-17.067V113.5h213.267c9.425,0,17.067-7.641,17.067-17.067V34.156
		C392.351,24.73,384.71,17.089,375.284,17.089z"/>
</g>
<path style="fill:#40596B;" d="M48.51,65.295c0-60.788,76.112-88.351,115.153-42.156c20.656,24.414,20.666,59.856,0.023,84.285
	C124.525,153.99,48.51,125.874,48.51,65.295z"/>
<path style="fill:#F8B64C;" d="M446.421,512H82.666c-9.425,0-17.067-7.641-17.067-17.067v-62.279
	c0-9.425,7.641-17.067,17.067-17.067h363.756c9.425,0,17.067,7.641,17.067,17.067v62.279C463.488,504.358,455.848,512,446.421,512z"
	/>
<path style="fill:#F59D00;" d="M446.421,415.586H264.544V512h181.878c9.425,0,17.067-7.641,17.067-17.067v-62.279
	C463.488,423.228,455.848,415.586,446.421,415.586z"/>
<path style="fill:#FFD15C;" d="M463.488,449.72H65.599v-79.346c0-9.425,7.641-17.067,17.067-17.067h363.756
	c9.425,0,17.067,7.641,17.067,17.067V449.72z"/>
<path style="fill:#F8B64C;" d="M463.488,370.374c0-9.425-7.641-17.067-17.067-17.067H264.544v96.413h198.945v-79.346H463.488z"/>
<path style="fill:#F59D00;" d="M375.284,17.089h-110.74V113.5h110.74c9.425,0,17.067-7.641,17.067-17.067V34.156
	C392.351,24.73,384.71,17.089,375.284,17.089z"/>
<g>
</g>
<g>
</g>
<g>
</g>
<g>
</g>
<g>
</g>
<g>
</g>
<g>
</g>
<g>
</g>
<g>
</g>
<g>
</g>
<g>
</g>
<g>
</g>
<g>
</g>
<g>
</g>
<g>
</g>
</svg>
