<?xml version="1.0" encoding="iso-8859-1"?>
<!-- Generator: Adobe Illustrator 19.0.0, SVG Export Plug-In . SVG Version: 6.00 Build 0)  -->
<svg version="1.1" id="Layer_1" xmlns="http://www.w3.org/2000/svg" xmlns:xlink="http://www.w3.org/1999/xlink" x="0px" y="0px"
	 viewBox="0 0 512.002 512.002" style="enable-background:new 0 0 512.002 512.002;" xml:space="preserve">
<path style="fill:#FAD05B;" d="M207.784,91.706l-40.591,40.591c-27.341,27.341-50.472,58.587-68.639,92.719L87.29,246.18
	c-6.43,12.081-14.618,23.141-24.295,32.818l-12.884,12.884c-26.104,26.104-26.104,68.426,0,94.531l75.478,75.478
	c26.104,26.104,68.426,26.104,94.531,0l12.884-12.884c9.677-9.677,20.738-17.864,32.818-24.295l21.164-11.264
	c34.132-18.167,65.378-41.299,92.719-68.639l40.591-40.591L207.784,91.706z"/>
<g>
	<path style="fill:#CCCCCC;" d="M398.605,16.668L398.605,16.668c-8.643-8.643-22.657-8.643-31.301,0L250.025,133.947l31.301,31.301
		L398.605,47.969C407.249,39.325,407.249,25.311,398.605,16.668z"/>
	<path style="fill:#CCCCCC;" d="M495.335,113.397L495.335,113.397c-8.643-8.643-22.657-8.643-31.301,0L346.754,230.676
		l31.301,31.301l117.279-117.279C503.978,136.054,503.978,122.041,495.335,113.397z"/>
</g>
<rect x="23.458" y="416.238" transform="matrix(-0.7071 0.7071 -0.7071 -0.7071 423.3658 725.9982)" style="fill:#FAD05B;" width="75.731" height="68.887"/>
<path d="M502.547,106.185L502.547,106.185c-12.608-12.607-33.119-12.607-45.726,0L346.754,216.252l-51.004-51.004L405.817,55.181
	c6.106-6.107,9.469-14.226,9.469-22.863s-3.363-16.756-9.469-22.863c-12.606-12.606-33.12-12.607-45.725,0L250.024,119.522
	l-35.028-35.027c-1.913-1.912-4.507-2.987-7.212-2.987c-2.705,0-5.299,1.075-7.212,2.987l-40.591,40.591
	c-28.077,28.077-51.775,60.087-70.431,95.139l-11.264,21.164c-5.963,11.2-13.534,21.428-22.504,30.399L42.899,284.67
	c-14.552,14.552-22.565,33.899-22.565,54.478s8.014,39.926,22.565,54.478l6.173,6.173L2.988,445.881
	c-3.983,3.983-3.983,10.441,0,14.425l48.708,48.708c1.992,1.992,4.602,2.987,7.212,2.987c2.61,0,5.22-0.996,7.212-2.987
	l46.082-46.082l6.173,6.173c15.021,15.02,34.749,22.529,54.478,22.529c19.73,0,39.46-7.51,54.479-22.529l12.883-12.883
	c8.971-8.97,19.199-16.543,30.399-22.503l21.164-11.264c35.053-18.657,67.062-42.352,95.139-70.431l40.591-40.59
	c3.983-3.983,3.983-10.441,0-14.425l-35.028-35.028l110.067-110.067C515.152,139.303,515.152,118.791,502.547,106.185z
	 M374.516,23.88c4.653-4.654,12.225-4.653,16.876,0c2.254,2.253,3.495,5.25,3.495,8.438c0,3.187-1.241,6.184-3.495,8.438
	L281.327,150.823l-16.877-16.876L374.516,23.88z M58.908,487.377l-34.283-34.284l38.87-38.871l34.283,34.284L58.908,487.377z
	 M405.871,304.217l-33.379,33.379c-26.649,26.649-57.03,49.14-90.298,66.848l-21.164,11.264
	c-12.983,6.91-24.84,15.687-35.239,26.087l-12.883,12.883c-11.044,11.044-25.547,16.566-40.054,16.564
	c-14.504-0.001-29.011-5.523-40.053-16.564L57.322,379.2c-10.699-10.698-16.592-24.924-16.592-40.053
	c0-15.13,5.891-29.354,16.592-40.053l12.883-12.883c10.398-10.398,19.176-22.254,26.086-35.238l11.264-21.164
	c17.707-33.269,40.198-63.649,66.849-90.299l33.379-33.379L405.871,304.217z M488.123,137.486L378.056,247.553l-16.876-16.876
	L471.245,120.61c4.652-4.653,12.225-4.653,16.877,0C492.775,125.263,492.775,132.833,488.123,137.486z"/>
<path d="M354.704,308.254c1.992,1.992,4.602,2.987,7.212,2.987s5.22-0.995,7.212-2.987c3.983-3.983,3.983-10.441,0-14.425
	l-8.794-8.794c-3.984-3.983-10.44-3.983-14.425,0c-3.983,3.983-3.983,10.441,0,14.425L354.704,308.254z"/>
<path d="M218.172,142.873c-3.984-3.983-10.44-3.982-14.425,0c-3.983,3.983-3.983,10.441,0,14.425l108.454,108.454
	c1.992,1.992,4.602,2.987,7.212,2.987s5.22-0.996,7.212-2.987c3.983-3.983,3.983-10.441,0-14.424L218.172,142.873z"/>
<path d="M214.141,196.002c-3.984-3.983-10.44-3.983-14.425,0c-3.983,3.983-3.983,10.441,0,14.425l101.858,101.858
	c1.992,1.992,4.602,2.987,7.212,2.987s5.22-0.995,7.212-2.987c3.983-3.983,3.983-10.441,0-14.425L214.141,196.002z"/>
<g>
</g>
<g>
</g>
<g>
</g>
<g>
</g>
<g>
</g>
<g>
</g>
<g>
</g>
<g>
</g>
<g>
</g>
<g>
</g>
<g>
</g>
<g>
</g>
<g>
</g>
<g>
</g>
<g>
</g>
</svg>
